STARTFONT 2.1
FONT -FontForge-Courgette-Book-R-Normal--10-100-72-72-P-52-ISO10646-1
SIZE 10 72 72
FONTBOUNDINGBOX 13 13 -2 -3
COMMENT "Generated by fontforge, http://fontforge.sourceforge.net"
COMMENT "Copyright (c) 2012, Sorkin Type Co (www.sorkintype.com) with Reserved Font Name "Courgette"."
STARTPROPERTIES 40
FOUNDRY "FontForge"
FAMILY_NAME "Courgette"
WEIGHT_NAME "Book"
SLANT "R"
SETWIDTH_NAME "Normal"
ADD_STYLE_NAME ""
PIXEL_SIZE 10
POINT_SIZE 100
RESOLUTION_X 72
RESOLUTION_Y 72
SPACING "P"
AVERAGE_WIDTH 52
CHARSET_REGISTRY "ISO10646"
CHARSET_ENCODING "1"
FONTNAME_REGISTRY ""
CHARSET_COLLECTIONS "ISO8859-2 ISO8859-9 ISO8859-4 ISO10646-1"
FONT_NAME "Courgette-Regular"
FACE_NAME "Courgette Regular"
COPYRIGHT "Copyright (c) 2012, Sorkin Type Co (www.sorkintype.com) with Reserved Font Name "Courgette"."
FONT_VERSION "1.002"
FONT_ASCENT 8
FONT_DESCENT 2
UNDERLINE_POSITION -1
UNDERLINE_THICKNESS 1
X_HEIGHT 4
CAP_HEIGHT 7
DEFAULT_CHAR 1
RAW_ASCENT 799
RAW_DESCENT 200
NORM_SPACE 3
RELATIVE_WEIGHT 40
RELATIVE_SETWIDTH 50
SUPERSCRIPT_X 0
SUPERSCRIPT_Y 4
SUPERSCRIPT_SIZE 6
SUBSCRIPT_X 0
SUBSCRIPT_Y 1
SUBSCRIPT_SIZE 6
AVG_LOWERCASE_WIDTH 51
AVG_UPPERCASE_WIDTH 58
ENDPROPERTIES
CHARS 407
STARTCHAR .null.dup1
ENCODING 0
SWIDTH 0 0
DWIDTH 0 0
BBX 1 1 0 0
BITMAP
00
ENDCHAR
STARTCHAR uni0001
ENCODING 1
SWIDTH 0 0
DWIDTH 0 0
BBX 1 1 0 0
BITMAP
00
ENDCHAR
STARTCHAR uni0002
ENCODING 2
SWIDTH 0 0
DWIDTH 0 0
BBX 1 1 0 0
BITMAP
00
ENDCHAR
STARTCHAR uni0003
ENCODING 3
SWIDTH 0 0
DWIDTH 0 0
BBX 1 1 0 0
BITMAP
00
ENDCHAR
STARTCHAR uni0004
ENCODING 4
SWIDTH 0 0
DWIDTH 0 0
BBX 1 1 0 0
BITMAP
00
ENDCHAR
STARTCHAR uni0005
ENCODING 5
SWIDTH 0 0
DWIDTH 0 0
BBX 1 1 0 0
BITMAP
00
ENDCHAR
STARTCHAR uni0006
ENCODING 6
SWIDTH 0 0
DWIDTH 0 0
BBX 1 1 0 0
BITMAP
00
ENDCHAR
STARTCHAR uni0007
ENCODING 7
SWIDTH 0 0
DWIDTH 0 0
BBX 1 1 0 0
BITMAP
00
ENDCHAR
STARTCHAR uni0008
ENCODING 8
SWIDTH 0 0
DWIDTH 0 0
BBX 1 1 0 0
BITMAP
00
ENDCHAR
STARTCHAR uni0009
ENCODING 9
SWIDTH 0 0
DWIDTH 0 0
BBX 1 1 0 0
BITMAP
00
ENDCHAR
STARTCHAR nonmarkingreturn
ENCODING 13
SWIDTH 0 0
DWIDTH 0 0
BBX 1 1 0 0
BITMAP
00
ENDCHAR
STARTCHAR uni0015
ENCODING 21
SWIDTH 0 0
DWIDTH 0 0
BBX 1 1 0 0
BITMAP
00
ENDCHAR
STARTCHAR uni0016
ENCODING 22
SWIDTH 0 0
DWIDTH 0 0
BBX 1 1 0 0
BITMAP
00
ENDCHAR
STARTCHAR uni0017
ENCODING 23
SWIDTH 0 0
DWIDTH 0 0
BBX 1 1 0 0
BITMAP
00
ENDCHAR
STARTCHAR uni0018
ENCODING 24
SWIDTH 0 0
DWIDTH 0 0
BBX 1 1 0 0
BITMAP
00
ENDCHAR
STARTCHAR uni0019
ENCODING 25
SWIDTH 0 0
DWIDTH 0 0
BBX 1 1 0 0
BITMAP
00
ENDCHAR
STARTCHAR space
ENCODING 32
SWIDTH 307 0
DWIDTH 3 0
BBX 1 1 0 0
BITMAP
00
ENDCHAR
STARTCHAR exclam
ENCODING 33
SWIDTH 417 0
DWIDTH 4 0
BBX 4 7 1 1
BITMAP
30
20
40
40
40
80
80
ENDCHAR
STARTCHAR quotedbl
ENCODING 34
SWIDTH 437 0
DWIDTH 4 0
BBX 4 3 1 6
BITMAP
50
50
A0
ENDCHAR
STARTCHAR numbersign
ENCODING 35
SWIDTH 725 0
DWIDTH 7 0
BBX 6 8 1 0
BITMAP
14
28
28
FC
50
FC
50
A0
ENDCHAR
STARTCHAR dollar
ENCODING 36
SWIDTH 545 0
DWIDTH 5 0
BBX 5 11 1 -2
BITMAP
08
30
48
C8
D0
40
20
A0
C0
80
80
ENDCHAR
STARTCHAR percent
ENCODING 37
SWIDTH 876 0
DWIDTH 9 0
BBX 7 8 1 0
BITMAP
62
A4
A8
D0
36
2A
4A
8C
ENDCHAR
STARTCHAR ampersand
ENCODING 38
SWIDTH 563 0
DWIDTH 6 0
BBX 6 8 0 0
BITMAP
38
64
48
50
60
5C
90
70
ENDCHAR
STARTCHAR quotesingle
ENCODING 39
SWIDTH 231 0
DWIDTH 2 0
BBX 2 3 1 6
BITMAP
40
40
80
ENDCHAR
STARTCHAR parenleft
ENCODING 40
SWIDTH 478 0
DWIDTH 5 0
BBX 5 12 1 -2
BITMAP
08
10
20
60
40
40
80
80
80
80
40
40
ENDCHAR
STARTCHAR parenright
ENCODING 41
SWIDTH 478 0
DWIDTH 5 0
BBX 5 12 -1 -2
BITMAP
10
10
08
08
08
08
08
10
10
20
40
80
ENDCHAR
STARTCHAR asterisk
ENCODING 42
SWIDTH 518 0
DWIDTH 5 0
BBX 4 4 1 4
BITMAP
20
B0
60
A0
ENDCHAR
STARTCHAR plus
ENCODING 43
SWIDTH 617 0
DWIDTH 6 0
BBX 5 5 1 1
BITMAP
20
20
F8
20
20
ENDCHAR
STARTCHAR comma
ENCODING 44
SWIDTH 312 0
DWIDTH 3 0
BBX 2 3 0 -1
BITMAP
C0
40
80
ENDCHAR
STARTCHAR hyphen
ENCODING 45
SWIDTH 452 0
DWIDTH 5 0
BBX 3 1 1 3
BITMAP
E0
ENDCHAR
STARTCHAR period
ENCODING 46
SWIDTH 270 0
DWIDTH 3 0
BBX 2 1 0 0
BITMAP
C0
ENDCHAR
STARTCHAR slash
ENCODING 47
SWIDTH 405 0
DWIDTH 4 0
BBX 7 11 -1 -2
BITMAP
02
04
04
08
08
10
10
20
40
40
80
ENDCHAR
STARTCHAR zero
ENCODING 48
SWIDTH 621 0
DWIDTH 6 0
BBX 5 8 1 0
BITMAP
38
48
48
88
88
90
B0
E0
ENDCHAR
STARTCHAR one
ENCODING 49
SWIDTH 405 0
DWIDTH 4 0
BBX 3 8 1 0
BITMAP
20
E0
20
40
40
40
80
80
ENDCHAR
STARTCHAR two
ENCODING 50
SWIDTH 524 0
DWIDTH 5 0
BBX 5 8 0 0
BITMAP
38
68
68
18
30
20
40
F0
ENDCHAR
STARTCHAR three
ENCODING 51
SWIDTH 537 0
DWIDTH 5 0
BBX 6 8 0 0
BITMAP
38
2C
68
18
30
10
D0
60
ENDCHAR
STARTCHAR four
ENCODING 52
SWIDTH 529 0
DWIDTH 5 0
BBX 4 8 1 0
BITMAP
40
40
50
90
90
F0
20
40
ENDCHAR
STARTCHAR five
ENCODING 53
SWIDTH 540 0
DWIDTH 5 0
BBX 6 8 0 0
BITMAP
3C
20
20
78
48
48
90
60
ENDCHAR
STARTCHAR six
ENCODING 54
SWIDTH 554 0
DWIDTH 6 0
BBX 5 8 1 0
BITMAP
38
48
D0
F0
90
90
90
E0
ENDCHAR
STARTCHAR seven
ENCODING 55
SWIDTH 473 0
DWIDTH 5 0
BBX 5 7 1 1
BITMAP
F8
10
20
40
40
80
80
ENDCHAR
STARTCHAR eight
ENCODING 56
SWIDTH 524 0
DWIDTH 5 0
BBX 6 8 0 0
BITMAP
38
2C
28
28
30
50
90
60
ENDCHAR
STARTCHAR nine
ENCODING 57
SWIDTH 554 0
DWIDTH 6 0
BBX 6 8 0 0
BITMAP
38
2C
48
48
38
08
D0
60
ENDCHAR
STARTCHAR colon
ENCODING 58
SWIDTH 312 0
DWIDTH 3 0
BBX 3 4 0 0
BITMAP
60
40
00
C0
ENDCHAR
STARTCHAR semicolon
ENCODING 59
SWIDTH 312 0
DWIDTH 3 0
BBX 3 6 0 -1
BITMAP
60
40
00
C0
40
80
ENDCHAR
STARTCHAR less
ENCODING 60
SWIDTH 637 0
DWIDTH 6 0
BBX 5 5 1 0
BITMAP
18
60
80
60
18
ENDCHAR
STARTCHAR equal
ENCODING 61
SWIDTH 617 0
DWIDTH 6 0
BBX 5 3 1 2
BITMAP
F8
00
F8
ENDCHAR
STARTCHAR greater
ENCODING 62
SWIDTH 606 0
DWIDTH 6 0
BBX 5 5 1 0
BITMAP
C0
30
18
60
80
ENDCHAR
STARTCHAR question
ENCODING 63
SWIDTH 516 0
DWIDTH 5 0
BBX 4 8 1 0
BITMAP
30
50
50
20
40
40
80
80
ENDCHAR
STARTCHAR at
ENCODING 64
SWIDTH 905 0
DWIDTH 9 0
BBX 9 8 0 -1
BITMAP
1F00
2080
4E80
5280
9500
5E00
4000
3C00
ENDCHAR
STARTCHAR A
ENCODING 65
SWIDTH 615 0
DWIDTH 6 0
BBX 8 8 -1 0
BITMAP
03
0E
0A
16
3E
24
44
C6
ENDCHAR
STARTCHAR B
ENCODING 66
SWIDTH 551 0
DWIDTH 6 0
BBX 6 8 0 0
BITMAP
78
64
24
48
70
48
88
70
ENDCHAR
STARTCHAR C
ENCODING 67
SWIDTH 533 0
DWIDTH 5 0
BBX 6 8 0 0
BITMAP
1C
24
64
48
40
C0
48
70
ENDCHAR
STARTCHAR D
ENCODING 68
SWIDTH 630 0
DWIDTH 6 0
BBX 6 8 0 0
BITMAP
78
04
24
64
44
4C
D8
60
ENDCHAR
STARTCHAR E
ENCODING 69
SWIDTH 509 0
DWIDTH 5 0
BBX 6 8 0 0
BITMAP
1C
24
48
40
30
40
C8
70
ENDCHAR
STARTCHAR F
ENCODING 70
SWIDTH 518 0
DWIDTH 5 0
BBX 6 8 0 0
BITMAP
74
5C
50
20
78
20
40
C0
ENDCHAR
STARTCHAR G
ENCODING 71
SWIDTH 598 0
DWIDTH 6 0
BBX 6 8 0 0
BITMAP
1C
24
64
48
40
DC
48
70
ENDCHAR
STARTCHAR H
ENCODING 72
SWIDTH 668 0
DWIDTH 7 0
BBX 7 8 0 0
BITMAP
62
22
22
24
5E
48
C8
8C
ENDCHAR
STARTCHAR I
ENCODING 73
SWIDTH 327 0
DWIDTH 3 0
BBX 3 8 0 0
BITMAP
60
20
20
20
20
40
40
80
ENDCHAR
STARTCHAR J
ENCODING 74
SWIDTH 393 0
DWIDTH 4 0
BBX 6 11 -2 -3
BITMAP
1C
14
04
04
08
08
18
10
30
20
C0
ENDCHAR
STARTCHAR K
ENCODING 75
SWIDTH 616 0
DWIDTH 6 0
BBX 6 8 0 0
BITMAP
64
24
24
28
70
50
D8
8C
ENDCHAR
STARTCHAR L
ENCODING 76
SWIDTH 517 0
DWIDTH 5 0
BBX 6 8 0 0
BITMAP
18
24
28
78
40
40
80
F8
ENDCHAR
STARTCHAR M
ENCODING 77
SWIDTH 931 0
DWIDTH 9 0
BBX 10 8 -1 0
BITMAP
0640
0CC0
1540
1580
2E80
2A80
4C80
8CC0
ENDCHAR
STARTCHAR N
ENCODING 78
SWIDTH 708 0
DWIDTH 7 0
BBX 8 8 0 0
BITMAP
13
31
32
52
52
9C
8C
88
ENDCHAR
STARTCHAR O
ENCODING 79
SWIDTH 655 0
DWIDTH 7 0
BBX 6 8 1 0
BITMAP
38
44
C4
8C
88
88
90
E0
ENDCHAR
STARTCHAR P
ENCODING 80
SWIDTH 553 0
DWIDTH 6 0
BBX 6 8 0 0
BITMAP
38
44
24
2C
70
40
C0
80
ENDCHAR
STARTCHAR Q
ENCODING 81
SWIDTH 655 0
DWIDTH 7 0
BBX 6 10 1 -2
BITMAP
38
44
C4
88
88
90
B0
E0
10
0C
ENDCHAR
STARTCHAR R
ENCODING 82
SWIDTH 623 0
DWIDTH 6 0
BBX 6 8 0 0
BITMAP
3C
64
24
2C
70
50
58
8C
ENDCHAR
STARTCHAR S
ENCODING 83
SWIDTH 474 0
DWIDTH 5 0
BBX 5 8 0 0
BITMAP
38
68
48
48
20
30
90
E0
ENDCHAR
STARTCHAR T
ENCODING 84
SWIDTH 471 0
DWIDTH 5 0
BBX 5 8 1 0
BITMAP
E8
B8
A0
20
40
40
40
80
ENDCHAR
STARTCHAR U
ENCODING 85
SWIDTH 624 0
DWIDTH 6 0
BBX 7 8 0 0
BITMAP
22
26
24
4C
48
D8
A8
CC
ENDCHAR
STARTCHAR V
ENCODING 86
SWIDTH 587 0
DWIDTH 6 0
BBX 6 8 1 0
BITMAP
E4
24
44
48
90
A0
C0
80
ENDCHAR
STARTCHAR W
ENCODING 87
SWIDTH 941 0
DWIDTH 9 0
BBX 9 8 1 0
BITMAP
C180
6080
4C80
5880
A900
B100
D200
8C00
ENDCHAR
STARTCHAR X
ENCODING 88
SWIDTH 552 0
DWIDTH 6 0
BBX 8 8 -1 0
BITMAP
13
12
14
18
18
18
28
CE
ENDCHAR
STARTCHAR Y
ENCODING 89
SWIDTH 580 0
DWIDTH 6 0
BBX 7 11 0 -3
BITMAP
22
24
24
4C
48
D8
A8
D0
10
20
C0
ENDCHAR
STARTCHAR Z
ENCODING 90
SWIDTH 501 0
DWIDTH 5 0
BBX 6 8 0 0
BITMAP
4C
7C
08
10
20
40
C0
F8
ENDCHAR
STARTCHAR bracketleft
ENCODING 91
SWIDTH 396 0
DWIDTH 4 0
BBX 5 11 0 -2
BITMAP
18
10
10
20
20
20
40
40
40
80
C0
ENDCHAR
STARTCHAR backslash
ENCODING 92
SWIDTH 464 0
DWIDTH 5 0
BBX 4 11 0 -2
BITMAP
80
40
40
40
40
20
20
20
20
10
10
ENDCHAR
STARTCHAR bracketright
ENCODING 93
SWIDTH 394 0
DWIDTH 4 0
BBX 6 11 -1 -2
BITMAP
0C
08
08
08
10
10
10
20
20
20
C0
ENDCHAR
STARTCHAR asciicircum
ENCODING 94
SWIDTH 540 0
DWIDTH 5 0
BBX 4 4 1 4
BITMAP
20
60
50
90
ENDCHAR
STARTCHAR underscore
ENCODING 95
SWIDTH 530 0
DWIDTH 5 0
BBX 7 1 -2 -2
BITMAP
FE
ENDCHAR
STARTCHAR grave
ENCODING 96
SWIDTH 219 0
DWIDTH 2 0
BBX 2 3 0 5
BITMAP
C0
40
40
ENDCHAR
STARTCHAR a
ENCODING 97
SWIDTH 541 0
DWIDTH 5 0
BBX 5 5 0 0
BITMAP
38
48
D0
90
78
ENDCHAR
STARTCHAR b
ENCODING 98
SWIDTH 525 0
DWIDTH 5 0
BBX 5 8 0 0
BITMAP
20
20
20
78
48
48
90
60
ENDCHAR
STARTCHAR c
ENCODING 99
SWIDTH 465 0
DWIDTH 5 0
BBX 5 5 0 0
BITMAP
30
58
C0
80
70
ENDCHAR
STARTCHAR d
ENCODING 100
SWIDTH 557 0
DWIDTH 6 0
BBX 6 8 0 0
BITMAP
04
04
04
38
48
48
D0
68
ENDCHAR
STARTCHAR e
ENCODING 101
SWIDTH 471 0
DWIDTH 5 0
BBX 5 5 0 0
BITMAP
30
58
70
80
70
ENDCHAR
STARTCHAR f
ENCODING 102
SWIDTH 393 0
DWIDTH 4 0
BBX 5 10 0 -1
BITMAP
18
28
28
20
70
40
40
40
80
80
ENDCHAR
STARTCHAR g
ENCODING 103
SWIDTH 526 0
DWIDTH 5 0
BBX 5 8 0 -3
BITMAP
38
48
58
90
70
10
20
40
ENDCHAR
STARTCHAR h
ENCODING 104
SWIDTH 555 0
DWIDTH 6 0
BBX 5 8 0 0
BITMAP
20
20
20
38
68
58
D0
98
ENDCHAR
STARTCHAR i
ENCODING 105
SWIDTH 286 0
DWIDTH 3 0
BBX 3 8 0 0
BITMAP
20
00
00
60
40
40
80
C0
ENDCHAR
STARTCHAR j
ENCODING 106
SWIDTH 281 0
DWIDTH 3 0
BBX 5 11 -2 -3
BITMAP
18
00
00
10
10
10
10
20
20
40
C0
ENDCHAR
STARTCHAR k
ENCODING 107
SWIDTH 497 0
DWIDTH 5 0
BBX 5 8 0 0
BITMAP
20
20
20
28
58
60
E0
98
ENDCHAR
STARTCHAR l
ENCODING 108
SWIDTH 279 0
DWIDTH 3 0
BBX 3 8 0 0
BITMAP
20
20
20
40
40
40
80
C0
ENDCHAR
STARTCHAR m
ENCODING 109
SWIDTH 814 0
DWIDTH 8 0
BBX 8 5 0 0
BITMAP
5B
6D
4A
D2
93
ENDCHAR
STARTCHAR n
ENCODING 110
SWIDTH 561 0
DWIDTH 6 0
BBX 5 5 0 0
BITMAP
58
68
48
D0
98
ENDCHAR
STARTCHAR o
ENCODING 111
SWIDTH 514 0
DWIDTH 5 0
BBX 5 5 0 0
BITMAP
30
48
D8
90
60
ENDCHAR
STARTCHAR p
ENCODING 112
SWIDTH 550 0
DWIDTH 6 0
BBX 6 8 -1 -3
BITMAP
2C
34
24
28
70
40
40
80
ENDCHAR
STARTCHAR q
ENCODING 113
SWIDTH 533 0
DWIDTH 5 0
BBX 5 8 0 -3
BITMAP
38
48
58
90
70
10
20
20
ENDCHAR
STARTCHAR r
ENCODING 114
SWIDTH 407 0
DWIDTH 4 0
BBX 5 5 0 0
BITMAP
58
60
40
40
80
ENDCHAR
STARTCHAR s
ENCODING 115
SWIDTH 423 0
DWIDTH 4 0
BBX 4 5 0 0
BITMAP
70
50
60
A0
E0
ENDCHAR
STARTCHAR t
ENCODING 116
SWIDTH 358 0
DWIDTH 4 0
BBX 3 7 1 0
BITMAP
40
40
E0
80
80
80
C0
ENDCHAR
STARTCHAR u
ENCODING 117
SWIDTH 553 0
DWIDTH 6 0
BBX 5 5 0 0
BITMAP
68
48
50
B0
D8
ENDCHAR
STARTCHAR v
ENCODING 118
SWIDTH 510 0
DWIDTH 5 0
BBX 5 5 0 0
BITMAP
68
48
48
90
E0
ENDCHAR
STARTCHAR w
ENCODING 119
SWIDTH 750 0
DWIDTH 8 0
BBX 7 5 0 0
BITMAP
6A
4A
52
72
DC
ENDCHAR
STARTCHAR x
ENCODING 120
SWIDTH 467 0
DWIDTH 5 0
BBX 5 5 0 0
BITMAP
58
50
60
60
B0
ENDCHAR
STARTCHAR y
ENCODING 121
SWIDTH 549 0
DWIDTH 6 0
BBX 6 8 0 -3
BITMAP
6C
48
58
B0
D0
10
20
40
ENDCHAR
STARTCHAR z
ENCODING 122
SWIDTH 430 0
DWIDTH 4 0
BBX 5 5 0 0
BITMAP
78
10
20
40
F0
ENDCHAR
STARTCHAR braceleft
ENCODING 123
SWIDTH 424 0
DWIDTH 4 0
BBX 5 11 1 -2
BITMAP
18
20
20
20
40
C0
80
80
80
80
80
ENDCHAR
STARTCHAR bar
ENCODING 124
SWIDTH 306 0
DWIDTH 3 0
BBX 1 11 1 -2
BITMAP
80
80
80
80
80
80
80
80
80
80
80
ENDCHAR
STARTCHAR braceright
ENCODING 125
SWIDTH 424 0
DWIDTH 4 0
BBX 5 11 -1 -2
BITMAP
08
08
08
08
10
18
20
20
20
20
C0
ENDCHAR
STARTCHAR asciitilde
ENCODING 126
SWIDTH 624 0
DWIDTH 6 0
BBX 5 2 1 2
BITMAP
E8
B0
ENDCHAR
STARTCHAR nonbreakingspace
ENCODING 160
SWIDTH 293 0
DWIDTH 3 0
BBX 1 1 0 0
BITMAP
00
ENDCHAR
STARTCHAR exclamdown
ENCODING 161
SWIDTH 417 0
DWIDTH 4 0
BBX 4 8 0 -2
BITMAP
30
00
20
40
40
C0
80
80
ENDCHAR
STARTCHAR cent
ENCODING 162
SWIDTH 487 0
DWIDTH 5 0
BBX 4 8 1 0
BITMAP
10
20
50
B0
80
A0
E0
80
ENDCHAR
STARTCHAR sterling
ENCODING 163
SWIDTH 665 0
DWIDTH 7 0
BBX 7 8 0 0
BITMAP
0E
0A
16
14
78
20
E0
DC
ENDCHAR
STARTCHAR currency
ENCODING 164
SWIDTH 572 0
DWIDTH 6 0
BBX 5 7 1 0
BITMAP
40
78
50
90
B0
E0
90
ENDCHAR
STARTCHAR yen
ENCODING 165
SWIDTH 583 0
DWIDTH 6 0
BBX 6 8 1 0
BITMAP
84
48
50
50
20
F0
E0
40
ENDCHAR
STARTCHAR brokenbar
ENCODING 166
SWIDTH 292 0
DWIDTH 3 0
BBX 1 11 1 -2
BITMAP
80
80
80
80
80
00
80
80
80
80
80
ENDCHAR
STARTCHAR section
ENCODING 167
SWIDTH 583 0
DWIDTH 6 0
BBX 6 11 0 -2
BITMAP
18
34
2C
10
70
48
48
70
20
A0
E0
ENDCHAR
STARTCHAR dieresis
ENCODING 168
SWIDTH 412 0
DWIDTH 4 0
BBX 4 1 0 7
BITMAP
D0
ENDCHAR
STARTCHAR copyright
ENCODING 169
SWIDTH 871 0
DWIDTH 9 0
BBX 7 8 1 0
BITMAP
3C
5A
A6
AA
A2
AA
B4
78
ENDCHAR
STARTCHAR ordfeminine
ENCODING 170
SWIDTH 564 0
DWIDTH 6 0
BBX 5 5 1 3
BITMAP
28
50
90
A0
D0
ENDCHAR
STARTCHAR guillemotleft
ENCODING 171
SWIDTH 662 0
DWIDTH 7 0
BBX 5 4 1 1
BITMAP
28
D0
B0
58
ENDCHAR
STARTCHAR logicalnot
ENCODING 172
SWIDTH 729 0
DWIDTH 7 0
BBX 5 3 1 1
BITMAP
F8
08
08
ENDCHAR
STARTCHAR uni00AD
ENCODING 173
SWIDTH 833 0
DWIDTH 8 0
BBX 1 1 0 0
BITMAP
00
ENDCHAR
STARTCHAR registered
ENCODING 174
SWIDTH 742 0
DWIDTH 7 0
BBX 6 7 1 1
BITMAP
38
74
AC
B4
B4
C8
70
ENDCHAR
STARTCHAR macron
ENCODING 175
SWIDTH 392 0
DWIDTH 4 0
BBX 3 1 1 6
BITMAP
E0
ENDCHAR
STARTCHAR degree
ENCODING 176
SWIDTH 405 0
DWIDTH 4 0
BBX 3 3 1 5
BITMAP
60
A0
E0
ENDCHAR
STARTCHAR plusminus
ENCODING 177
SWIDTH 617 0
DWIDTH 6 0
BBX 5 7 1 0
BITMAP
20
20
F8
20
20
00
F8
ENDCHAR
STARTCHAR twosuperior
ENCODING 178
SWIDTH 458 0
DWIDTH 5 0
BBX 4 5 1 3
BITMAP
70
50
20
40
E0
ENDCHAR
STARTCHAR threesuperior
ENCODING 179
SWIDTH 430 0
DWIDTH 4 0
BBX 4 5 1 3
BITMAP
70
50
60
A0
C0
ENDCHAR
STARTCHAR acute
ENCODING 180
SWIDTH 322 0
DWIDTH 3 0
BBX 2 2 1 5
BITMAP
40
80
ENDCHAR
STARTCHAR mu
ENCODING 181
SWIDTH 618 0
DWIDTH 6 0
BBX 6 8 0 -3
BITMAP
24
48
48
D8
EC
80
80
80
ENDCHAR
STARTCHAR paragraph
ENCODING 182
SWIDTH 739 0
DWIDTH 7 0
BBX 8 9 0 -1
BITMAP
0F
3B
3A
3A
1A
14
54
A4
68
ENDCHAR
STARTCHAR periodcentered
ENCODING 183
SWIDTH 353 0
DWIDTH 4 0
BBX 2 2 1 2
BITMAP
C0
80
ENDCHAR
STARTCHAR cedilla
ENCODING 184
SWIDTH 301 0
DWIDTH 3 0
BBX 1 3 1 -2
BITMAP
80
80
80
ENDCHAR
STARTCHAR onesuperior
ENCODING 185
SWIDTH 403 0
DWIDTH 4 0
BBX 3 5 1 3
BITMAP
20
E0
40
40
80
ENDCHAR
STARTCHAR ordmasculine
ENCODING 186
SWIDTH 498 0
DWIDTH 5 0
BBX 4 5 1 3
BITMAP
30
50
90
A0
40
ENDCHAR
STARTCHAR guillemotright
ENCODING 187
SWIDTH 665 0
DWIDTH 7 0
BBX 5 4 1 1
BITMAP
90
48
78
A0
ENDCHAR
STARTCHAR onequarter
ENCODING 188
SWIDTH 988 0
DWIDTH 10 0
BBX 8 8 1 0
BITMAP
64
E4
4C
56
55
AD
26
42
ENDCHAR
STARTCHAR onehalf
ENCODING 189
SWIDTH 988 0
DWIDTH 10 0
BBX 8 8 1 0
BITMAP
24
E4
48
53
95
A3
24
4F
ENDCHAR
STARTCHAR threequarters
ENCODING 190
SWIDTH 1007 0
DWIDTH 10 0
BBX 9 8 0 0
BITMAP
3100
5200
3500
3500
A980
6A80
1380
3100
ENDCHAR
STARTCHAR questiondown
ENCODING 191
SWIDTH 516 0
DWIDTH 5 0
BBX 5 8 0 -2
BITMAP
18
00
10
20
40
B0
A0
60
ENDCHAR
STARTCHAR Agrave
ENCODING 192
SWIDTH 615 0
DWIDTH 6 0
BBX 8 10 -1 0
BITMAP
02
06
03
0E
0A
16
3E
24
44
C6
ENDCHAR
STARTCHAR Aacute
ENCODING 193
SWIDTH 615 0
DWIDTH 6 0
BBX 8 10 -1 0
BITMAP
01
03
02
0E
0A
16
3E
24
44
C6
ENDCHAR
STARTCHAR Acircumflex
ENCODING 194
SWIDTH 615 0
DWIDTH 6 0
BBX 8 10 -1 0
BITMAP
01
07
02
0E
0A
16
3E
24
44
C6
ENDCHAR
STARTCHAR Atilde
ENCODING 195
SWIDTH 615 0
DWIDTH 6 0
BBX 9 10 -1 0
BITMAP
0680
0700
0200
0E00
0A00
1600
3E00
2400
4400
C600
ENDCHAR
STARTCHAR Adieresis
ENCODING 196
SWIDTH 615 0
DWIDTH 6 0
BBX 9 10 -1 0
BITMAP
0500
0580
0200
0E00
0A00
1600
3E00
2400
4400
C600
ENDCHAR
STARTCHAR Aring
ENCODING 197
SWIDTH 615 0
DWIDTH 6 0
BBX 8 10 -1 0
BITMAP
03
05
06
0A
0A
16
3E
24
44
C6
ENDCHAR
STARTCHAR AE
ENCODING 198
SWIDTH 878 0
DWIDTH 9 0
BBX 11 8 -1 0
BITMAP
07C0
0F20
0AC0
1200
3F80
2600
4480
C700
ENDCHAR
STARTCHAR Ccedilla
ENCODING 199
SWIDTH 533 0
DWIDTH 5 0
BBX 5 10 1 -2
BITMAP
38
48
C8
90
80
80
90
E0
40
80
ENDCHAR
STARTCHAR Egrave
ENCODING 200
SWIDTH 509 0
DWIDTH 5 0
BBX 6 10 0 0
BITMAP
10
08
1C
24
48
40
30
40
C8
70
ENDCHAR
STARTCHAR Eacute
ENCODING 201
SWIDTH 509 0
DWIDTH 5 0
BBX 6 10 0 0
BITMAP
04
08
1C
24
48
40
30
40
C8
70
ENDCHAR
STARTCHAR Ecircumflex
ENCODING 202
SWIDTH 509 0
DWIDTH 5 0
BBX 6 10 0 0
BITMAP
08
14
1C
24
48
40
30
40
C8
70
ENDCHAR
STARTCHAR Edieresis
ENCODING 203
SWIDTH 509 0
DWIDTH 5 0
BBX 6 10 0 0
BITMAP
14
14
1C
24
48
40
30
40
C8
70
ENDCHAR
STARTCHAR Igrave
ENCODING 204
SWIDTH 327 0
DWIDTH 3 0
BBX 4 10 0 0
BITMAP
20
30
60
20
20
20
20
40
40
80
ENDCHAR
STARTCHAR Iacute
ENCODING 205
SWIDTH 327 0
DWIDTH 3 0
BBX 5 10 0 0
BITMAP
08
10
60
20
20
20
20
40
40
80
ENDCHAR
STARTCHAR Icircumflex
ENCODING 206
SWIDTH 327 0
DWIDTH 3 0
BBX 5 10 0 0
BITMAP
10
38
60
20
20
20
20
40
40
80
ENDCHAR
STARTCHAR Idieresis
ENCODING 207
SWIDTH 327 0
DWIDTH 3 0
BBX 5 10 0 0
BITMAP
28
68
60
20
20
20
20
40
40
80
ENDCHAR
STARTCHAR Eth
ENCODING 208
SWIDTH 630 0
DWIDTH 6 0
BBX 6 8 0 0
BITMAP
78
04
24
F4
44
48
D8
60
ENDCHAR
STARTCHAR Ntilde
ENCODING 209
SWIDTH 708 0
DWIDTH 7 0
BBX 8 10 0 0
BITMAP
05
0A
13
31
32
52
52
9C
8C
88
ENDCHAR
STARTCHAR Ograve
ENCODING 210
SWIDTH 655 0
DWIDTH 7 0
BBX 6 10 1 0
BITMAP
10
18
38
44
C4
8C
88
88
90
E0
ENDCHAR
STARTCHAR Oacute
ENCODING 211
SWIDTH 655 0
DWIDTH 7 0
BBX 6 10 1 0
BITMAP
04
08
38
44
C4
8C
88
88
90
E0
ENDCHAR
STARTCHAR Ocircumflex
ENCODING 212
SWIDTH 655 0
DWIDTH 7 0
BBX 6 10 1 0
BITMAP
08
14
38
44
C4
8C
88
88
90
E0
ENDCHAR
STARTCHAR Otilde
ENCODING 213
SWIDTH 655 0
DWIDTH 7 0
BBX 6 10 1 0
BITMAP
1C
2C
38
44
C4
8C
88
88
90
E0
ENDCHAR
STARTCHAR Odieresis
ENCODING 214
SWIDTH 655 0
DWIDTH 7 0
BBX 6 10 1 0
BITMAP
14
14
38
44
C4
8C
88
88
90
E0
ENDCHAR
STARTCHAR multiply
ENCODING 215
SWIDTH 573 0
DWIDTH 6 0
BBX 4 4 1 1
BITMAP
90
60
60
90
ENDCHAR
STARTCHAR Oslash
ENCODING 216
SWIDTH 655 0
DWIDTH 7 0
BBX 6 10 1 -1
BITMAP
04
18
6C
54
D4
AC
C8
D0
E0
80
ENDCHAR
STARTCHAR Ugrave
ENCODING 217
SWIDTH 624 0
DWIDTH 6 0
BBX 7 10 0 0
BITMAP
08
08
22
26
24
4C
48
D8
A8
CC
ENDCHAR
STARTCHAR Uacute
ENCODING 218
SWIDTH 624 0
DWIDTH 6 0
BBX 7 10 0 0
BITMAP
04
0C
22
26
24
4C
48
D8
A8
CC
ENDCHAR
STARTCHAR Ucircumflex
ENCODING 219
SWIDTH 624 0
DWIDTH 6 0
BBX 7 10 0 0
BITMAP
04
1C
22
26
24
4C
48
D8
A8
CC
ENDCHAR
STARTCHAR Udieresis
ENCODING 220
SWIDTH 624 0
DWIDTH 6 0
BBX 7 10 0 0
BITMAP
14
1E
22
26
24
4C
48
D8
A8
CC
ENDCHAR
STARTCHAR Yacute
ENCODING 221
SWIDTH 580 0
DWIDTH 6 0
BBX 7 13 0 -3
BITMAP
04
0C
22
24
24
4C
48
D8
A8
D0
10
20
C0
ENDCHAR
STARTCHAR Thorn
ENCODING 222
SWIDTH 527 0
DWIDTH 5 0
BBX 5 8 0 0
BITMAP
60
20
38
68
48
70
80
80
ENDCHAR
STARTCHAR germandbls
ENCODING 223
SWIDTH 520 0
DWIDTH 5 0
BBX 6 10 -1 -2
BITMAP
0C
14
14
28
28
28
74
58
40
80
ENDCHAR
STARTCHAR agrave
ENCODING 224
SWIDTH 541 0
DWIDTH 5 0
BBX 5 8 0 0
BITMAP
10
10
10
38
48
D0
90
78
ENDCHAR
STARTCHAR aacute
ENCODING 225
SWIDTH 541 0
DWIDTH 5 0
BBX 5 8 0 0
BITMAP
08
18
20
38
48
D0
90
78
ENDCHAR
STARTCHAR acircumflex
ENCODING 226
SWIDTH 541 0
DWIDTH 5 0
BBX 5 8 0 0
BITMAP
08
18
28
38
48
D0
90
78
ENDCHAR
STARTCHAR atilde
ENCODING 227
SWIDTH 541 0
DWIDTH 5 0
BBX 6 8 0 0
BITMAP
34
28
00
38
48
D0
90
78
ENDCHAR
STARTCHAR adieresis
ENCODING 228
SWIDTH 541 0
DWIDTH 5 0
BBX 6 8 0 0
BITMAP
2C
00
00
38
48
D0
90
78
ENDCHAR
STARTCHAR aring
ENCODING 229
SWIDTH 541 0
DWIDTH 5 0
BBX 5 8 0 0
BITMAP
18
28
10
38
48
D0
90
78
ENDCHAR
STARTCHAR ae
ENCODING 230
SWIDTH 769 0
DWIDTH 8 0
BBX 8 5 0 0
BITMAP
3E
4B
DE
90
6E
ENDCHAR
STARTCHAR ccedilla
ENCODING 231
SWIDTH 465 0
DWIDTH 5 0
BBX 5 7 0 -2
BITMAP
30
58
D0
80
70
40
40
ENDCHAR
STARTCHAR egrave
ENCODING 232
SWIDTH 471 0
DWIDTH 5 0
BBX 5 8 0 0
BITMAP
30
10
10
30
58
70
80
70
ENDCHAR
STARTCHAR eacute
ENCODING 233
SWIDTH 471 0
DWIDTH 5 0
BBX 5 8 0 0
BITMAP
18
10
20
30
58
70
80
70
ENDCHAR
STARTCHAR ecircumflex
ENCODING 234
SWIDTH 471 0
DWIDTH 5 0
BBX 5 8 0 0
BITMAP
08
38
48
30
58
70
80
70
ENDCHAR
STARTCHAR edieresis
ENCODING 235
SWIDTH 471 0
DWIDTH 5 0
BBX 5 8 0 0
BITMAP
28
00
00
38
50
60
D0
70
ENDCHAR
STARTCHAR igrave
ENCODING 236
SWIDTH 286 0
DWIDTH 3 0
BBX 3 8 0 0
BITMAP
60
20
20
60
40
40
80
C0
ENDCHAR
STARTCHAR iacute
ENCODING 237
SWIDTH 286 0
DWIDTH 3 0
BBX 3 8 0 0
BITMAP
20
20
40
60
40
40
80
C0
ENDCHAR
STARTCHAR icircumflex
ENCODING 238
SWIDTH 286 0
DWIDTH 3 0
BBX 4 8 0 0
BITMAP
20
70
90
60
40
40
80
C0
ENDCHAR
STARTCHAR idieresis
ENCODING 239
SWIDTH 286 0
DWIDTH 3 0
BBX 4 8 0 0
BITMAP
50
00
00
60
40
40
80
C0
ENDCHAR
STARTCHAR eth
ENCODING 240
SWIDTH 524 0
DWIDTH 5 0
BBX 6 8 0 0
BITMAP
0C
18
18
38
48
58
90
60
ENDCHAR
STARTCHAR ntilde
ENCODING 241
SWIDTH 561 0
DWIDTH 6 0
BBX 6 8 0 0
BITMAP
34
28
00
58
68
48
D0
98
ENDCHAR
STARTCHAR ograve
ENCODING 242
SWIDTH 514 0
DWIDTH 5 0
BBX 5 8 0 0
BITMAP
10
10
08
30
48
D8
90
60
ENDCHAR
STARTCHAR oacute
ENCODING 243
SWIDTH 514 0
DWIDTH 5 0
BBX 5 8 0 0
BITMAP
08
08
10
30
48
D8
90
60
ENDCHAR
STARTCHAR ocircumflex
ENCODING 244
SWIDTH 514 0
DWIDTH 5 0
BBX 6 8 0 0
BITMAP
08
18
24
30
48
D8
90
60
ENDCHAR
STARTCHAR otilde
ENCODING 245
SWIDTH 514 0
DWIDTH 5 0
BBX 6 8 0 0
BITMAP
14
28
00
30
48
D8
90
60
ENDCHAR
STARTCHAR odieresis
ENCODING 246
SWIDTH 514 0
DWIDTH 5 0
BBX 6 8 0 0
BITMAP
3C
00
00
30
48
D8
90
60
ENDCHAR
STARTCHAR divide
ENCODING 247
SWIDTH 617 0
DWIDTH 6 0
BBX 5 5 1 1
BITMAP
20
20
F8
00
60
ENDCHAR
STARTCHAR oslash
ENCODING 248
SWIDTH 514 0
DWIDTH 5 0
BBX 5 7 0 -1
BITMAP
08
30
58
E8
D0
60
80
ENDCHAR
STARTCHAR ugrave
ENCODING 249
SWIDTH 553 0
DWIDTH 6 0
BBX 5 8 0 0
BITMAP
10
10
08
68
48
50
B0
D8
ENDCHAR
STARTCHAR uacute
ENCODING 250
SWIDTH 553 0
DWIDTH 6 0
BBX 5 8 0 0
BITMAP
08
08
10
68
48
50
B0
D8
ENDCHAR
STARTCHAR ucircumflex
ENCODING 251
SWIDTH 553 0
DWIDTH 6 0
BBX 6 8 0 0
BITMAP
08
18
24
68
48
50
B0
D8
ENDCHAR
STARTCHAR udieresis
ENCODING 252
SWIDTH 553 0
DWIDTH 6 0
BBX 6 8 0 0
BITMAP
34
00
00
68
48
50
B0
D8
ENDCHAR
STARTCHAR yacute
ENCODING 253
SWIDTH 549 0
DWIDTH 6 0
BBX 6 11 0 -3
BITMAP
08
18
20
6C
48
58
B0
D0
10
20
40
ENDCHAR
STARTCHAR thorn
ENCODING 254
SWIDTH 552 0
DWIDTH 6 0
BBX 6 11 -1 -3
BITMAP
10
10
10
1C
34
24
28
78
40
40
80
ENDCHAR
STARTCHAR ydieresis
ENCODING 255
SWIDTH 549 0
DWIDTH 6 0
BBX 6 11 0 -3
BITMAP
3C
00
00
6C
48
58
B0
D0
10
20
40
ENDCHAR
STARTCHAR Amacron
ENCODING 256
SWIDTH 615 0
DWIDTH 6 0
BBX 8 9 -1 0
BITMAP
07
02
0E
0A
16
3E
24
44
C6
ENDCHAR
STARTCHAR amacron
ENCODING 257
SWIDTH 543 0
DWIDTH 5 0
BBX 6 7 0 0
BITMAP
3C
00
38
48
D0
90
78
ENDCHAR
STARTCHAR Abreve
ENCODING 258
SWIDTH 615 0
DWIDTH 6 0
BBX 9 10 -1 0
BITMAP
0480
0300
0200
0E00
0A00
1600
3E00
2400
4400
C600
ENDCHAR
STARTCHAR abreve
ENCODING 259
SWIDTH 543 0
DWIDTH 5 0
BBX 6 8 0 0
BITMAP
24
18
00
38
48
D0
90
78
ENDCHAR
STARTCHAR Aogonek
ENCODING 260
SWIDTH 615 0
DWIDTH 6 0
BBX 8 10 -1 -2
BITMAP
03
0E
0A
16
3E
24
44
C6
08
0C
ENDCHAR
STARTCHAR aogonek
ENCODING 261
SWIDTH 541 0
DWIDTH 5 0
BBX 5 7 0 -2
BITMAP
38
48
D0
90
78
10
10
ENDCHAR
STARTCHAR Cacute
ENCODING 262
SWIDTH 533 0
DWIDTH 5 0
BBX 7 10 0 0
BITMAP
02
04
1C
24
64
48
40
C0
48
70
ENDCHAR
STARTCHAR cacute
ENCODING 263
SWIDTH 468 0
DWIDTH 5 0
BBX 5 8 0 0
BITMAP
08
08
10
30
58
C0
80
70
ENDCHAR
STARTCHAR Ccircumflex
ENCODING 264
SWIDTH 533 0
DWIDTH 5 0
BBX 7 10 0 0
BITMAP
04
0A
1C
24
64
48
40
C0
48
70
ENDCHAR
STARTCHAR ccircumflex
ENCODING 265
SWIDTH 468 0
DWIDTH 5 0
BBX 5 8 0 0
BITMAP
08
18
28
30
58
C0
80
70
ENDCHAR
STARTCHAR Cdotaccent
ENCODING 266
SWIDTH 533 0
DWIDTH 5 0
BBX 6 10 0 0
BITMAP
08
0C
1C
24
64
48
40
C0
48
70
ENDCHAR
STARTCHAR cdotaccent
ENCODING 267
SWIDTH 468 0
DWIDTH 5 0
BBX 5 8 0 0
BITMAP
18
00
00
30
58
C0
80
70
ENDCHAR
STARTCHAR Ccaron
ENCODING 268
SWIDTH 533 0
DWIDTH 5 0
BBX 7 10 0 0
BITMAP
02
0C
1C
24
64
48
40
C0
48
70
ENDCHAR
STARTCHAR ccaron
ENCODING 269
SWIDTH 468 0
DWIDTH 5 0
BBX 6 8 0 0
BITMAP
14
18
00
30
58
C0
80
70
ENDCHAR
STARTCHAR Dcaron
ENCODING 270
SWIDTH 630 0
DWIDTH 6 0
BBX 7 10 0 0
BITMAP
12
0C
78
04
24
64
44
4C
D8
60
ENDCHAR
STARTCHAR dcaron
ENCODING 271
SWIDTH 557 0
DWIDTH 6 0
BBX 8 8 0 0
BITMAP
05
05
06
38
48
48
D0
68
ENDCHAR
STARTCHAR Dcroat
ENCODING 272
SWIDTH 630 0
DWIDTH 6 0
BBX 6 8 0 0
BITMAP
78
04
24
F4
44
48
D8
60
ENDCHAR
STARTCHAR dcroat
ENCODING 273
SWIDTH 557 0
DWIDTH 6 0
BBX 7 8 0 0
BITMAP
04
1E
04
38
48
48
D0
68
ENDCHAR
STARTCHAR Emacron
ENCODING 274
SWIDTH 509 0
DWIDTH 5 0
BBX 6 9 0 0
BITMAP
1C
1C
24
48
40
30
40
C8
70
ENDCHAR
STARTCHAR emacron
ENCODING 275
SWIDTH 471 0
DWIDTH 5 0
BBX 5 7 0 0
BITMAP
38
00
30
58
70
80
70
ENDCHAR
STARTCHAR Ebreve
ENCODING 276
SWIDTH 509 0
DWIDTH 5 0
BBX 6 10 0 0
BITMAP
14
1C
1C
24
48
40
30
40
C8
70
ENDCHAR
STARTCHAR ebreve
ENCODING 277
SWIDTH 471 0
DWIDTH 5 0
BBX 5 8 0 0
BITMAP
28
30
00
30
58
70
80
70
ENDCHAR
STARTCHAR Edotaccent
ENCODING 278
SWIDTH 509 0
DWIDTH 5 0
BBX 6 10 0 0
BITMAP
08
18
1C
24
48
40
30
40
C8
70
ENDCHAR
STARTCHAR edotaccent
ENCODING 279
SWIDTH 471 0
DWIDTH 5 0
BBX 5 8 0 0
BITMAP
10
00
00
30
58
70
80
70
ENDCHAR
STARTCHAR Eogonek
ENCODING 280
SWIDTH 509 0
DWIDTH 5 0
BBX 6 10 0 -2
BITMAP
1C
24
48
40
30
40
C8
70
40
60
ENDCHAR
STARTCHAR eogonek
ENCODING 281
SWIDTH 471 0
DWIDTH 5 0
BBX 5 7 0 -2
BITMAP
30
48
70
C0
70
40
60
ENDCHAR
STARTCHAR Ecaron
ENCODING 282
SWIDTH 509 0
DWIDTH 5 0
BBX 6 10 0 0
BITMAP
14
08
1C
24
48
40
30
40
C8
70
ENDCHAR
STARTCHAR ecaron
ENCODING 283
SWIDTH 471 0
DWIDTH 5 0
BBX 6 8 0 0
BITMAP
24
18
00
30
58
70
80
70
ENDCHAR
STARTCHAR Gcircumflex
ENCODING 284
SWIDTH 598 0
DWIDTH 6 0
BBX 7 10 0 0
BITMAP
04
0A
1C
24
64
48
40
DC
48
70
ENDCHAR
STARTCHAR gcircumflex
ENCODING 285
SWIDTH 526 0
DWIDTH 5 0
BBX 5 11 0 -3
BITMAP
08
18
28
38
48
58
90
70
10
20
40
ENDCHAR
STARTCHAR Gbreve
ENCODING 286
SWIDTH 598 0
DWIDTH 6 0
BBX 7 10 0 0
BITMAP
0A
0C
1C
24
64
48
40
DC
48
70
ENDCHAR
STARTCHAR gbreve
ENCODING 287
SWIDTH 526 0
DWIDTH 5 0
BBX 6 11 0 -3
BITMAP
14
18
00
38
48
58
90
70
10
20
40
ENDCHAR
STARTCHAR Gdotaccent
ENCODING 288
SWIDTH 598 0
DWIDTH 6 0
BBX 6 10 0 0
BITMAP
08
0C
1C
24
64
48
40
DC
48
70
ENDCHAR
STARTCHAR gdotaccent
ENCODING 289
SWIDTH 526 0
DWIDTH 5 0
BBX 5 11 0 -3
BITMAP
18
00
00
38
48
58
90
70
10
20
40
ENDCHAR
STARTCHAR Gcommaaccent
ENCODING 290
SWIDTH 598 0
DWIDTH 6 0
BBX 6 11 0 -3
BITMAP
1C
24
64
48
40
DC
48
70
40
40
40
ENDCHAR
STARTCHAR gcommaaccent
ENCODING 291
SWIDTH 526 0
DWIDTH 5 0
BBX 5 11 0 -3
BITMAP
08
18
00
38
48
58
90
70
10
20
40
ENDCHAR
STARTCHAR Hcircumflex
ENCODING 292
SWIDTH 668 0
DWIDTH 7 0
BBX 7 10 0 0
BITMAP
04
1C
62
22
22
24
5E
48
C8
8C
ENDCHAR
STARTCHAR hcircumflex
ENCODING 293
SWIDTH 555 0
DWIDTH 6 0
BBX 5 10 0 0
BITMAP
10
70
20
20
20
78
68
58
D0
98
ENDCHAR
STARTCHAR Hbar
ENCODING 294
SWIDTH 668 0
DWIDTH 7 0
BBX 8 8 0 0
BITMAP
62
22
7F
24
7E
44
48
8C
ENDCHAR
STARTCHAR hbar
ENCODING 295
SWIDTH 555 0
DWIDTH 6 0
BBX 5 8 0 0
BITMAP
20
78
20
38
68
58
D0
98
ENDCHAR
STARTCHAR Itilde
ENCODING 296
SWIDTH 327 0
DWIDTH 3 0
BBX 5 10 0 0
BITMAP
28
50
60
20
20
20
20
40
40
80
ENDCHAR
STARTCHAR itilde
ENCODING 297
SWIDTH 286 0
DWIDTH 3 0
BBX 4 8 0 0
BITMAP
70
B0
00
60
40
40
80
C0
ENDCHAR
STARTCHAR Imacron
ENCODING 298
SWIDTH 327 0
DWIDTH 3 0
BBX 5 9 0 0
BITMAP
78
60
20
20
20
20
40
40
80
ENDCHAR
STARTCHAR imacron
ENCODING 299
SWIDTH 286 0
DWIDTH 3 0
BBX 4 7 0 0
BITMAP
F0
00
60
40
40
80
C0
ENDCHAR
STARTCHAR Ibreve
ENCODING 300
SWIDTH 327 0
DWIDTH 3 0
BBX 5 10 0 0
BITMAP
28
30
60
20
20
20
20
40
40
80
ENDCHAR
STARTCHAR ibreve
ENCODING 301
SWIDTH 286 0
DWIDTH 3 0
BBX 4 8 0 0
BITMAP
50
60
00
60
40
40
80
C0
ENDCHAR
STARTCHAR Iogonek
ENCODING 302
SWIDTH 327 0
DWIDTH 3 0
BBX 4 10 -1 -2
BITMAP
30
10
10
10
30
20
60
40
80
80
ENDCHAR
STARTCHAR iogonek
ENCODING 303
SWIDTH 297 0
DWIDTH 3 0
BBX 3 11 0 -3
BITMAP
20
00
00
60
40
40
40
C0
40
80
C0
ENDCHAR
STARTCHAR Idotaccent
ENCODING 304
SWIDTH 327 0
DWIDTH 3 0
BBX 4 10 0 0
BITMAP
20
30
60
20
20
20
20
40
40
80
ENDCHAR
STARTCHAR dotlessi
ENCODING 305
SWIDTH 286 0
DWIDTH 3 0
BBX 3 5 0 0
BITMAP
60
40
40
80
C0
ENDCHAR
STARTCHAR IJ
ENCODING 306
SWIDTH 720 0
DWIDTH 7 0
BBX 8 11 0 -3
BITMAP
67
2A
22
22
22
44
44
88
08
10
20
ENDCHAR
STARTCHAR ij
ENCODING 307
SWIDTH 567 0
DWIDTH 6 0
BBX 6 11 0 -3
BITMAP
2C
00
00
68
48
48
88
D0
10
20
40
ENDCHAR
STARTCHAR Jcircumflex
ENCODING 308
SWIDTH 393 0
DWIDTH 4 0
BBX 7 13 -2 -3
BITMAP
02
0E
1C
14
04
04
08
08
18
10
30
20
C0
ENDCHAR
STARTCHAR jcircumflex
ENCODING 309
SWIDTH 282 0
DWIDTH 3 0
BBX 6 11 -2 -3
BITMAP
08
18
24
10
10
10
10
20
20
40
C0
ENDCHAR
STARTCHAR Kcommaaccent
ENCODING 310
SWIDTH 616 0
DWIDTH 6 0
BBX 6 11 0 -3
BITMAP
64
24
24
28
70
50
D8
8C
20
60
40
ENDCHAR
STARTCHAR kcommaaccent
ENCODING 311
SWIDTH 497 0
DWIDTH 5 0
BBX 5 11 0 -3
BITMAP
20
20
20
28
58
60
60
98
40
40
40
ENDCHAR
STARTCHAR kgreenlandic
ENCODING 312
SWIDTH 497 0
DWIDTH 5 0
BBX 5 5 0 0
BITMAP
48
58
60
E0
98
ENDCHAR
STARTCHAR Lacute
ENCODING 313
SWIDTH 517 0
DWIDTH 5 0
BBX 6 10 0 0
BITMAP
04
0C
18
24
28
78
40
40
80
F8
ENDCHAR
STARTCHAR lacute
ENCODING 314
SWIDTH 279 0
DWIDTH 3 0
BBX 4 10 0 0
BITMAP
10
10
20
20
20
40
40
40
80
C0
ENDCHAR
STARTCHAR Lcommaaccent
ENCODING 315
SWIDTH 517 0
DWIDTH 5 0
BBX 6 11 0 -3
BITMAP
18
24
28
78
40
40
80
F8
40
40
80
ENDCHAR
STARTCHAR lcommaaccent
ENCODING 316
SWIDTH 279 0
DWIDTH 3 0
BBX 3 11 0 -3
BITMAP
20
20
20
40
40
40
80
C0
80
40
80
ENDCHAR
STARTCHAR Lcaron
ENCODING 317
SWIDTH 517 0
DWIDTH 5 0
BBX 8 10 0 0
BITMAP
02
01
1A
24
28
78
40
40
80
F8
ENDCHAR
STARTCHAR lcaron
ENCODING 318
SWIDTH 467 0
DWIDTH 5 0
BBX 6 8 0 0
BITMAP
2C
28
28
40
40
40
80
C0
ENDCHAR
STARTCHAR Ldot
ENCODING 319
SWIDTH 668 0
DWIDTH 7 0
BBX 7 8 0 0
BITMAP
18
24
28
78
46
40
80
F8
ENDCHAR
STARTCHAR ldot
ENCODING 320
SWIDTH 489 0
DWIDTH 5 0
BBX 5 8 0 0
BITMAP
20
20
20
40
58
50
80
C0
ENDCHAR
STARTCHAR Lslash
ENCODING 321
SWIDTH 517 0
DWIDTH 5 0
BBX 6 8 0 0
BITMAP
18
24
28
78
60
C0
80
F8
ENDCHAR
STARTCHAR lslash
ENCODING 322
SWIDTH 279 0
DWIDTH 3 0
BBX 5 9 0 0
BITMAP
40
38
20
20
40
40
40
80
C0
ENDCHAR
STARTCHAR Nacute
ENCODING 323
SWIDTH 708 0
DWIDTH 7 0
BBX 8 10 0 0
BITMAP
02
02
13
31
32
52
52
9C
8C
88
ENDCHAR
STARTCHAR nacute
ENCODING 324
SWIDTH 561 0
DWIDTH 6 0
BBX 5 8 0 0
BITMAP
08
08
10
58
68
48
D0
98
ENDCHAR
STARTCHAR Ncommaaccent
ENCODING 325
SWIDTH 708 0
DWIDTH 7 0
BBX 8 11 0 -3
BITMAP
13
31
32
52
52
9C
8C
88
00
30
20
ENDCHAR
STARTCHAR ncommaaccent
ENCODING 326
SWIDTH 561 0
DWIDTH 6 0
BBX 5 8 0 -3
BITMAP
58
68
48
D0
98
40
40
40
ENDCHAR
STARTCHAR Ncaron
ENCODING 327
SWIDTH 708 0
DWIDTH 7 0
BBX 8 10 0 0
BITMAP
01
06
13
31
32
52
52
9C
8C
88
ENDCHAR
STARTCHAR ncaron
ENCODING 328
SWIDTH 561 0
DWIDTH 6 0
BBX 6 8 0 0
BITMAP
14
18
00
58
68
48
D0
98
ENDCHAR
STARTCHAR Eng
ENCODING 330
SWIDTH 698 0
DWIDTH 7 0
BBX 8 11 0 -3
BITMAP
12
33
52
52
52
92
8C
8C
08
10
60
ENDCHAR
STARTCHAR eng
ENCODING 331
SWIDTH 561 0
DWIDTH 6 0
BBX 5 8 0 -3
BITMAP
58
68
48
C8
90
10
20
40
ENDCHAR
STARTCHAR Omacron
ENCODING 332
SWIDTH 655 0
DWIDTH 7 0
BBX 6 9 1 0
BITMAP
1C
38
44
C4
8C
88
88
90
E0
ENDCHAR
STARTCHAR omacron
ENCODING 333
SWIDTH 514 0
DWIDTH 5 0
BBX 6 7 0 0
BITMAP
3C
00
30
48
D8
90
60
ENDCHAR
STARTCHAR Obreve
ENCODING 334
SWIDTH 655 0
DWIDTH 7 0
BBX 6 10 1 0
BITMAP
14
1C
38
44
C4
8C
88
88
90
E0
ENDCHAR
STARTCHAR obreve
ENCODING 335
SWIDTH 514 0
DWIDTH 5 0
BBX 6 8 0 0
BITMAP
14
18
00
30
48
D8
90
60
ENDCHAR
STARTCHAR Ohungarumlaut
ENCODING 336
SWIDTH 655 0
DWIDTH 7 0
BBX 6 10 1 0
BITMAP
0C
14
38
44
C4
8C
88
88
90
E0
ENDCHAR
STARTCHAR ohungarumlaut
ENCODING 337
SWIDTH 514 0
DWIDTH 5 0
BBX 6 8 0 0
BITMAP
14
18
30
30
48
D8
90
60
ENDCHAR
STARTCHAR OE
ENCODING 338
SWIDTH 900 0
DWIDTH 9 0
BBX 9 8 1 0
BITMAP
1F80
2480
4580
4400
8600
8C00
9900
7E00
ENDCHAR
STARTCHAR oe
ENCODING 339
SWIDTH 777 0
DWIDTH 8 0
BBX 7 5 1 0
BITMAP
7E
92
9C
B0
FC
ENDCHAR
STARTCHAR Racute
ENCODING 340
SWIDTH 623 0
DWIDTH 6 0
BBX 6 10 0 0
BITMAP
04
08
3C
64
24
2C
70
50
58
8C
ENDCHAR
STARTCHAR racute
ENCODING 341
SWIDTH 407 0
DWIDTH 4 0
BBX 5 8 0 0
BITMAP
08
10
20
58
60
40
40
80
ENDCHAR
STARTCHAR Rcommaaccent
ENCODING 342
SWIDTH 623 0
DWIDTH 6 0
BBX 6 11 0 -3
BITMAP
3C
64
24
2C
70
50
58
8C
00
40
40
ENDCHAR
STARTCHAR rcommaaccent
ENCODING 343
SWIDTH 407 0
DWIDTH 4 0
BBX 6 8 -1 -3
BITMAP
2C
30
20
20
40
40
40
80
ENDCHAR
STARTCHAR Rcaron
ENCODING 344
SWIDTH 623 0
DWIDTH 6 0
BBX 6 10 0 0
BITMAP
14
08
3C
64
24
2C
70
50
58
8C
ENDCHAR
STARTCHAR rcaron
ENCODING 345
SWIDTH 407 0
DWIDTH 4 0
BBX 5 8 0 0
BITMAP
28
38
00
58
60
40
40
80
ENDCHAR
STARTCHAR Sacute
ENCODING 346
SWIDTH 474 0
DWIDTH 5 0
BBX 6 10 0 0
BITMAP
04
08
38
64
48
48
20
30
90
E0
ENDCHAR
STARTCHAR sacute
ENCODING 347
SWIDTH 423 0
DWIDTH 4 0
BBX 5 8 0 0
BITMAP
08
10
20
70
50
60
A0
E0
ENDCHAR
STARTCHAR Scircumflex
ENCODING 348
SWIDTH 474 0
DWIDTH 5 0
BBX 6 10 0 0
BITMAP
08
14
38
64
48
48
20
30
90
E0
ENDCHAR
STARTCHAR scircumflex
ENCODING 349
SWIDTH 423 0
DWIDTH 4 0
BBX 5 8 0 0
BITMAP
10
38
48
70
50
60
A0
E0
ENDCHAR
STARTCHAR Scedilla
ENCODING 350
SWIDTH 474 0
DWIDTH 5 0
BBX 5 10 0 -2
BITMAP
38
68
48
68
20
90
A0
40
40
40
ENDCHAR
STARTCHAR scedilla
ENCODING 351
SWIDTH 423 0
DWIDTH 4 0
BBX 4 7 0 -2
BITMAP
70
50
60
A0
E0
40
C0
ENDCHAR
STARTCHAR Scaron
ENCODING 352
SWIDTH 474 0
DWIDTH 5 0
BBX 6 10 0 0
BITMAP
14
08
38
64
48
48
20
30
90
E0
ENDCHAR
STARTCHAR scaron
ENCODING 353
SWIDTH 423 0
DWIDTH 4 0
BBX 6 8 0 0
BITMAP
24
18
00
70
50
60
A0
E0
ENDCHAR
STARTCHAR Tcommaaccent
ENCODING 354
SWIDTH 471 0
DWIDTH 5 0
BBX 5 11 1 -3
BITMAP
E8
B8
A0
20
40
40
40
80
00
80
80
ENDCHAR
STARTCHAR tcommaaccent
ENCODING 355
SWIDTH 358 0
DWIDTH 4 0
BBX 4 9 0 -3
BITMAP
20
70
40
40
40
60
40
C0
80
ENDCHAR
STARTCHAR Tcaron
ENCODING 356
SWIDTH 471 0
DWIDTH 5 0
BBX 6 10 1 0
BITMAP
24
18
E4
B8
A0
20
40
40
40
80
ENDCHAR
STARTCHAR tcaron
ENCODING 357
SWIDTH 497 0
DWIDTH 5 0
BBX 5 8 1 0
BITMAP
08
68
50
E0
80
80
80
C0
ENDCHAR
STARTCHAR Tbar
ENCODING 358
SWIDTH 471 0
DWIDTH 5 0
BBX 5 8 1 0
BITMAP
E8
B8
A0
20
E0
40
40
80
ENDCHAR
STARTCHAR tbar
ENCODING 359
SWIDTH 358 0
DWIDTH 4 0
BBX 4 7 0 0
BITMAP
20
20
70
40
F0
40
60
ENDCHAR
STARTCHAR Utilde
ENCODING 360
SWIDTH 624 0
DWIDTH 6 0
BBX 7 10 0 0
BITMAP
0A
14
22
26
24
4C
48
D8
A8
CC
ENDCHAR
STARTCHAR utilde
ENCODING 361
SWIDTH 553 0
DWIDTH 6 0
BBX 6 8 0 0
BITMAP
14
28
00
68
48
50
B0
D8
ENDCHAR
STARTCHAR Umacron
ENCODING 362
SWIDTH 624 0
DWIDTH 6 0
BBX 7 9 0 0
BITMAP
1E
22
26
24
4C
48
D8
A8
CC
ENDCHAR
STARTCHAR umacron
ENCODING 363
SWIDTH 553 0
DWIDTH 6 0
BBX 6 7 0 0
BITMAP
3C
00
68
48
50
B0
D8
ENDCHAR
STARTCHAR Ubreve
ENCODING 364
SWIDTH 624 0
DWIDTH 6 0
BBX 7 10 0 0
BITMAP
0A
0C
22
26
24
4C
48
D8
A8
CC
ENDCHAR
STARTCHAR ubreve
ENCODING 365
SWIDTH 553 0
DWIDTH 6 0
BBX 6 8 0 0
BITMAP
14
18
00
68
48
50
B0
D8
ENDCHAR
STARTCHAR Uring
ENCODING 366
SWIDTH 624 0
DWIDTH 6 0
BBX 7 10 0 0
BITMAP
0C
0C
22
26
24
4C
48
D8
A8
CC
ENDCHAR
STARTCHAR uring
ENCODING 367
SWIDTH 553 0
DWIDTH 6 0
BBX 6 8 0 0
BITMAP
18
14
18
68
48
50
B0
D8
ENDCHAR
STARTCHAR Uhungarumlaut
ENCODING 368
SWIDTH 624 0
DWIDTH 6 0
BBX 7 10 0 0
BITMAP
0A
1C
22
26
24
4C
48
D8
A8
CC
ENDCHAR
STARTCHAR uhungarumlaut
ENCODING 369
SWIDTH 553 0
DWIDTH 6 0
BBX 6 8 0 0
BITMAP
14
14
28
68
48
50
B0
D8
ENDCHAR
STARTCHAR Uogonek
ENCODING 370
SWIDTH 684 0
DWIDTH 7 0
BBX 7 10 0 -2
BITMAP
32
22
24
24
4C
54
D8
6C
08
0C
ENDCHAR
STARTCHAR uogonek
ENCODING 371
SWIDTH 553 0
DWIDTH 6 0
BBX 5 7 0 -2
BITMAP
68
48
50
B0
D8
10
10
ENDCHAR
STARTCHAR Wcircumflex
ENCODING 372
SWIDTH 941 0
DWIDTH 9 0
BBX 9 10 1 0
BITMAP
0400
0A00
C180
6080
4C80
5880
A900
B100
D200
8C00
ENDCHAR
STARTCHAR wcircumflex
ENCODING 373
SWIDTH 750 0
DWIDTH 8 0
BBX 7 8 0 0
BITMAP
04
0C
14
6A
4A
52
72
DC
ENDCHAR
STARTCHAR Ycircumflex
ENCODING 374
SWIDTH 580 0
DWIDTH 6 0
BBX 7 13 0 -3
BITMAP
04
1C
22
24
24
4C
48
D8
A8
D0
10
20
C0
ENDCHAR
STARTCHAR ycircumflex
ENCODING 375
SWIDTH 549 0
DWIDTH 6 0
BBX 6 11 0 -3
BITMAP
08
18
28
6C
48
58
B0
D0
10
20
40
ENDCHAR
STARTCHAR Ydieresis
ENCODING 376
SWIDTH 580 0
DWIDTH 6 0
BBX 7 12 0 -3
BITMAP
16
22
24
24
4C
48
D8
A8
D0
10
20
C0
ENDCHAR
STARTCHAR Zacute
ENCODING 377
SWIDTH 501 0
DWIDTH 5 0
BBX 6 10 0 0
BITMAP
04
08
4C
7C
08
10
20
40
C0
F8
ENDCHAR
STARTCHAR zacute
ENCODING 378
SWIDTH 430 0
DWIDTH 4 0
BBX 5 8 0 0
BITMAP
08
18
20
78
10
20
40
F0
ENDCHAR
STARTCHAR Zdotaccent
ENCODING 379
SWIDTH 501 0
DWIDTH 5 0
BBX 6 10 0 0
BITMAP
10
18
4C
7C
08
10
20
40
C0
F8
ENDCHAR
STARTCHAR zdotaccent
ENCODING 380
SWIDTH 430 0
DWIDTH 4 0
BBX 5 8 0 0
BITMAP
30
00
00
78
10
20
40
F0
ENDCHAR
STARTCHAR Zcaron
ENCODING 381
SWIDTH 501 0
DWIDTH 5 0
BBX 6 10 0 0
BITMAP
04
18
4C
7C
08
10
20
40
C0
F8
ENDCHAR
STARTCHAR zcaron
ENCODING 382
SWIDTH 430 0
DWIDTH 4 0
BBX 5 8 0 0
BITMAP
28
30
00
78
10
20
40
F0
ENDCHAR
STARTCHAR florin
ENCODING 402
SWIDTH 466 0
DWIDTH 5 0
BBX 8 11 -2 -3
BITMAP
02
05
0B
08
1C
08
10
10
10
A0
E0
ENDCHAR
STARTCHAR AEacute
ENCODING 508
SWIDTH 878 0
DWIDTH 9 0
BBX 11 10 -1 0
BITMAP
0080
0180
07C0
0F20
0AC0
1200
3F80
2600
4480
C700
ENDCHAR
STARTCHAR aeacute
ENCODING 509
SWIDTH 770 0
DWIDTH 8 0
BBX 8 8 0 0
BITMAP
04
0C
10
3E
4B
5E
90
6E
ENDCHAR
STARTCHAR Scommaaccent
ENCODING 536
SWIDTH 474 0
DWIDTH 5 0
BBX 5 11 0 -3
BITMAP
38
68
48
48
20
30
90
E0
40
40
40
ENDCHAR
STARTCHAR scommaaccent
ENCODING 537
SWIDTH 423 0
DWIDTH 4 0
BBX 4 8 0 -3
BITMAP
70
50
60
A0
E0
40
40
80
ENDCHAR
STARTCHAR dotlessj
ENCODING 567
SWIDTH 277 0
DWIDTH 3 0
BBX 4 8 -2 -3
BITMAP
10
10
10
10
20
20
40
C0
ENDCHAR
STARTCHAR circumflex
ENCODING 710
SWIDTH 354 0
DWIDTH 4 0
BBX 4 2 0 6
BITMAP
20
F0
ENDCHAR
STARTCHAR caron
ENCODING 711
SWIDTH 381 0
DWIDTH 4 0
BBX 4 2 0 6
BITMAP
D0
60
ENDCHAR
STARTCHAR breve
ENCODING 728
SWIDTH 344 0
DWIDTH 3 0
BBX 4 2 0 6
BITMAP
90
60
ENDCHAR
STARTCHAR dotaccent
ENCODING 729
SWIDTH 217 0
DWIDTH 2 0
BBX 1 1 1 7
BITMAP
80
ENDCHAR
STARTCHAR ring
ENCODING 730
SWIDTH 402 0
DWIDTH 4 0
BBX 3 3 1 5
BITMAP
60
A0
40
ENDCHAR
STARTCHAR ogonek
ENCODING 731
SWIDTH 311 0
DWIDTH 3 0
BBX 3 3 0 -3
BITMAP
60
40
C0
ENDCHAR
STARTCHAR tilde
ENCODING 732
SWIDTH 397 0
DWIDTH 4 0
BBX 3 2 1 6
BITMAP
E0
E0
ENDCHAR
STARTCHAR hungarumlaut
ENCODING 733
SWIDTH 392 0
DWIDTH 4 0
BBX 4 2 0 5
BITMAP
50
A0
ENDCHAR
STARTCHAR pi
ENCODING 960
SWIDTH 640 0
DWIDTH 6 0
BBX 7 5 0 0
BITMAP
7E
28
48
58
88
ENDCHAR
STARTCHAR uni1E02
ENCODING 7682
SWIDTH 551 0
DWIDTH 6 0
BBX 6 10 0 0
BITMAP
08
08
78
64
24
48
70
48
88
70
ENDCHAR
STARTCHAR uni1E03
ENCODING 7683
SWIDTH 525 0
DWIDTH 5 0
BBX 6 8 0 0
BITMAP
2C
20
20
78
48
48
90
60
ENDCHAR
STARTCHAR uni1E0A
ENCODING 7690
SWIDTH 630 0
DWIDTH 6 0
BBX 6 10 0 0
BITMAP
08
08
78
04
24
64
44
4C
D8
60
ENDCHAR
STARTCHAR uni1E0B
ENCODING 7691
SWIDTH 557 0
DWIDTH 6 0
BBX 6 8 0 0
BITMAP
24
04
04
38
48
48
D0
68
ENDCHAR
STARTCHAR uni1E1E
ENCODING 7710
SWIDTH 518 0
DWIDTH 5 0
BBX 6 10 0 0
BITMAP
08
08
74
5C
50
20
78
20
40
C0
ENDCHAR
STARTCHAR uni1E1F
ENCODING 7711
SWIDTH 393 0
DWIDTH 4 0
BBX 5 11 0 -1
BITMAP
10
18
28
28
20
70
40
40
40
80
80
ENDCHAR
STARTCHAR uni1E40
ENCODING 7744
SWIDTH 931 0
DWIDTH 9 0
BBX 10 10 -1 0
BITMAP
0080
0080
0640
0CC0
1540
1580
2E80
2A80
4C80
8CC0
ENDCHAR
STARTCHAR uni1E41
ENCODING 7745
SWIDTH 814 0
DWIDTH 8 0
BBX 8 8 0 0
BITMAP
0C
00
00
5B
6D
4A
D2
93
ENDCHAR
STARTCHAR uni1E56
ENCODING 7766
SWIDTH 553 0
DWIDTH 6 0
BBX 6 10 0 0
BITMAP
08
0C
38
44
24
2C
70
40
C0
80
ENDCHAR
STARTCHAR uni1E57
ENCODING 7767
SWIDTH 550 0
DWIDTH 6 0
BBX 6 11 -1 -3
BITMAP
08
00
00
2C
34
24
28
70
40
40
80
ENDCHAR
STARTCHAR uni1E60
ENCODING 7776
SWIDTH 474 0
DWIDTH 5 0
BBX 5 10 0 0
BITMAP
08
18
38
68
48
48
20
30
90
E0
ENDCHAR
STARTCHAR uni1E61
ENCODING 7777
SWIDTH 423 0
DWIDTH 4 0
BBX 4 8 0 0
BITMAP
10
00
00
70
50
60
A0
E0
ENDCHAR
STARTCHAR uni1E6A
ENCODING 7786
SWIDTH 430 0
DWIDTH 4 0
BBX 6 10 0 0
BITMAP
08
18
64
9C
90
20
20
20
40
C0
ENDCHAR
STARTCHAR uni1E6B
ENCODING 7787
SWIDTH 358 0
DWIDTH 4 0
BBX 3 8 1 0
BITMAP
20
00
40
E0
80
80
80
C0
ENDCHAR
STARTCHAR Wgrave
ENCODING 7808
SWIDTH 941 0
DWIDTH 9 0
BBX 9 10 1 0
BITMAP
0400
0C00
C180
6080
4C80
5880
A900
B100
D200
8C00
ENDCHAR
STARTCHAR wgrave
ENCODING 7809
SWIDTH 750 0
DWIDTH 8 0
BBX 7 8 0 0
BITMAP
08
08
08
6A
4A
52
72
DC
ENDCHAR
STARTCHAR Wacute
ENCODING 7810
SWIDTH 941 0
DWIDTH 9 0
BBX 9 10 1 0
BITMAP
0200
0400
C180
6080
4C80
5880
A900
B100
D200
8C00
ENDCHAR
STARTCHAR wacute
ENCODING 7811
SWIDTH 750 0
DWIDTH 8 0
BBX 7 8 0 0
BITMAP
04
08
10
6A
4A
52
72
DC
ENDCHAR
STARTCHAR Wdieresis
ENCODING 7812
SWIDTH 941 0
DWIDTH 9 0
BBX 9 10 1 0
BITMAP
0A00
0A00
C180
6080
4C80
5880
A900
B100
D200
8C00
ENDCHAR
STARTCHAR wdieresis
ENCODING 7813
SWIDTH 750 0
DWIDTH 8 0
BBX 7 8 0 0
BITMAP
16
00
00
6A
4A
52
72
DC
ENDCHAR
STARTCHAR Ygrave
ENCODING 7922
SWIDTH 580 0
DWIDTH 6 0
BBX 7 13 0 -3
BITMAP
08
08
22
24
24
4C
48
D8
A8
D0
10
20
C0
ENDCHAR
STARTCHAR ygrave
ENCODING 7923
SWIDTH 549 0
DWIDTH 6 0
BBX 6 11 0 -3
BITMAP
10
10
08
6C
48
58
B0
D0
10
20
40
ENDCHAR
STARTCHAR endash
ENCODING 8211
SWIDTH 751 0
DWIDTH 8 0
BBX 6 1 1 3
BITMAP
FC
ENDCHAR
STARTCHAR emdash
ENCODING 8212
SWIDTH 1066 0
DWIDTH 11 0
BBX 9 1 1 3
BITMAP
FF80
ENDCHAR
STARTCHAR quoteleft
ENCODING 8216
SWIDTH 268 0
DWIDTH 3 0
BBX 2 3 1 6
BITMAP
40
80
C0
ENDCHAR
STARTCHAR quoteright
ENCODING 8217
SWIDTH 268 0
DWIDTH 3 0
BBX 2 3 1 6
BITMAP
40
40
C0
ENDCHAR
STARTCHAR quotesinglbase
ENCODING 8218
SWIDTH 268 0
DWIDTH 3 0
BBX 2 3 0 -1
BITMAP
C0
40
80
ENDCHAR
STARTCHAR quotedblleft
ENCODING 8220
SWIDTH 485 0
DWIDTH 5 0
BBX 4 3 1 6
BITMAP
30
50
F0
ENDCHAR
STARTCHAR quotedblright
ENCODING 8221
SWIDTH 480 0
DWIDTH 5 0
BBX 4 3 1 6
BITMAP
50
50
F0
ENDCHAR
STARTCHAR quotedblbase
ENCODING 8222
SWIDTH 463 0
DWIDTH 5 0
BBX 4 3 0 -1
BITMAP
F0
50
A0
ENDCHAR
STARTCHAR dagger
ENCODING 8224
SWIDTH 488 0
DWIDTH 5 0
BBX 4 8 1 0
BITMAP
20
20
F0
40
40
40
80
80
ENDCHAR
STARTCHAR daggerdbl
ENCODING 8225
SWIDTH 488 0
DWIDTH 5 0
BBX 4 8 1 0
BITMAP
20
20
F0
40
E0
40
80
80
ENDCHAR
STARTCHAR bullet
ENCODING 8226
SWIDTH 437 0
DWIDTH 4 0
BBX 3 2 1 3
BITMAP
C0
E0
ENDCHAR
STARTCHAR ellipsis
ENCODING 8230
SWIDTH 810 0
DWIDTH 8 0
BBX 7 1 0 0
BITMAP
DA
ENDCHAR
STARTCHAR perthousand
ENCODING 8240
SWIDTH 1184 0
DWIDTH 12 0
BBX 10 8 1 0
BITMAP
6400
A800
A800
D000
2CC0
2D40
5540
8D80
ENDCHAR
STARTCHAR guilsinglleft
ENCODING 8249
SWIDTH 413 0
DWIDTH 4 0
BBX 3 4 1 1
BITMAP
20
C0
80
40
ENDCHAR
STARTCHAR guilsinglright
ENCODING 8250
SWIDTH 416 0
DWIDTH 4 0
BBX 3 4 1 1
BITMAP
80
40
60
80
ENDCHAR
STARTCHAR fraction
ENCODING 8260
SWIDTH 580 0
DWIDTH 6 0
BBX 6 8 0 0
BITMAP
04
08
10
10
20
20
40
80
ENDCHAR
STARTCHAR Euro
ENCODING 8364
SWIDTH 622 0
DWIDTH 6 0
BBX 6 8 1 0
BITMAP
18
24
6C
48
F0
E0
C0
70
ENDCHAR
STARTCHAR trademark
ENCODING 8482
SWIDTH 1084 0
DWIDTH 11 0
BBX 8 4 2 4
BITMAP
F5
4B
9D
FF
ENDCHAR
STARTCHAR Omega
ENCODING 8486
SWIDTH 839 0
DWIDTH 8 0
BBX 8 8 0 0
BITMAP
18
26
42
43
43
42
22
F7
ENDCHAR
STARTCHAR partialdiff
ENCODING 8706
SWIDTH 580 0
DWIDTH 6 0
BBX 6 8 0 0
BITMAP
18
24
14
6C
48
C8
90
60
ENDCHAR
STARTCHAR Delta
ENCODING 8710
SWIDTH 663 0
DWIDTH 7 0
BBX 6 6 0 0
BITMAP
10
38
28
48
44
FC
ENDCHAR
STARTCHAR product
ENCODING 8719
SWIDTH 667 0
DWIDTH 7 0
BBX 5 9 1 -1
BITMAP
78
88
88
88
88
88
88
88
88
ENDCHAR
STARTCHAR summation
ENCODING 8721
SWIDTH 677 0
DWIDTH 7 0
BBX 6 9 0 -1
BITMAP
3C
40
20
30
10
10
20
40
FC
ENDCHAR
STARTCHAR minus
ENCODING 8722
SWIDTH 617 0
DWIDTH 6 0
BBX 5 1 1 3
BITMAP
F8
ENDCHAR
STARTCHAR radical
ENCODING 8730
SWIDTH 709 0
DWIDTH 7 0
BBX 8 9 0 0
BITMAP
01
02
02
04
64
A8
28
30
20
ENDCHAR
STARTCHAR infinity
ENCODING 8734
SWIDTH 681 0
DWIDTH 7 0
BBX 5 3 1 2
BITMAP
D8
A8
D8
ENDCHAR
STARTCHAR integral
ENCODING 8747
SWIDTH 583 0
DWIDTH 6 0
BBX 8 11 -1 -2
BITMAP
07
05
08
08
08
18
10
10
70
A0
C0
ENDCHAR
STARTCHAR approxequal
ENCODING 8776
SWIDTH 671 0
DWIDTH 7 0
BBX 5 5 1 1
BITMAP
48
B8
00
E8
B0
ENDCHAR
STARTCHAR notequal
ENCODING 8800
SWIDTH 617 0
DWIDTH 6 0
BBX 5 6 1 1
BITMAP
10
10
F8
20
F8
80
ENDCHAR
STARTCHAR lessequal
ENCODING 8804
SWIDTH 704 0
DWIDTH 7 0
BBX 5 7 1 0
BITMAP
08
30
C0
C0
30
08
F8
ENDCHAR
STARTCHAR greaterequal
ENCODING 8805
SWIDTH 617 0
DWIDTH 6 0
BBX 5 7 1 0
BITMAP
80
40
38
30
40
80
F8
ENDCHAR
STARTCHAR lozenge
ENCODING 9674
SWIDTH 580 0
DWIDTH 6 0
BBX 5 8 0 0
BITMAP
20
30
50
48
88
48
30
20
ENDCHAR
STARTCHAR commaaccent
ENCODING 63171
SWIDTH 250 0
DWIDTH 3 0
BBX 2 3 0 -3
BITMAP
40
40
80
ENDCHAR
STARTCHAR ff
ENCODING 64256
SWIDTH 773 0
DWIDTH 8 0
BBX 9 10 0 -1
BITMAP
1980
2A80
2A80
2200
7F00
C400
4400
4C00
8800
8800
ENDCHAR
STARTCHAR fi
ENCODING 64257
SWIDTH 623 0
DWIDTH 6 0
BBX 7 10 0 -2
BITMAP
0C
16
24
3C
C4
48
48
CC
80
80
ENDCHAR
STARTCHAR fl
ENCODING 64258
SWIDTH 637 0
DWIDTH 6 0
BBX 7 10 0 -2
BITMAP
0C
12
24
34
44
48
48
8C
80
80
ENDCHAR
STARTCHAR .notdef
ENCODING -1
SWIDTH 896 0
DWIDTH 9 0
BBX 9 9 1 0
BITMAP
3F80
3F80
6D00
6B00
6700
EE00
D200
FE00
FE00
ENDCHAR
ENDFONT
